<?xml version="1.0" encoding="UTF-8"?><svg id="Layer_1" xmlns="http://www.w3.org/2000/svg" viewBox="0 0 1.06106 1.53919"><defs><style>.cls-1{fill:#fff;}</style></defs><g><path class="cls-1" d="M.65731,.74041c-.00291,.00988-.00772,.0187-.01454,.02644-.00278,.00316-.00596,.00596-.0091,.00876-.00404,.0036-.00825,.00702-.01257,.0103-.00156,.00122-.00317,.00236-.00484,.00343-.00104,.00075-.00214,.00139-.0033,.00194-.00083,.00037-.00109,.00026-.00077-.00033,.0002-.00086,.00069-.00158,.00147-.00214,.00041-.00047,.00082-.00094,.00122-.00142,.00007-.00009,.00014-.00018,.00022-.00026-.00009,.00012-.00017,.00023-.00026,.00035-.00061,.00081,.00122-.00151,.00057-.00073-.00011,.00013-.00021,.00025-.00031,.00038,.00057-.00077,.00114-.00154,.00168-.00234,.00124-.00182,.00238-.00372,.00341-.00566,.00205-.00387,.00369-.00795,.00497-.01213-.00005,.00018-.0001,.00035-.00015,.00052,.00009-.00029,.00017-.00058,.00026-.00086-.00003,.00011-.00007,.00023-.0001,.00034,.00059-.00204,.0011-.00409,.00152-.00617,.00414-.02027,.00022-.04096-.00565-.06048-.00431-.01433-.00943-.02842-.01417-.04261-.00498-.01491-.00985-.02985-.01446-.04487-.00427-.01392-.00843-.02791-.01166-.04211-.00164-.0072-.00333-.01472-.00309-.02213,.00016-.00471,.00133-.00959,.00394-.01357,.00351-.00536,.00864-.00972,.01339-.01393,.00558-.00494,.01139-.00971,.0175-.01398,.00216-.00151,.00429-.00283,.00665-.004,.00215-.00106-.00046,.00217-.0007,.00247-.00265,.00323-.00584,.00529-.00638,.00656-.00038,.00091-.0009,.00203-.00118,.00282,.00005-.0002,.00011-.00039,.00016-.00059-.00009,.00029-.00017,.00058-.00026,.00086,.00003-.00009,.00006-.00018,.00009-.00027-.00061,.00229-.0009,.00464-.00094,.00701-.00015,.00747,.00158,.01505,.00325,.02231,.00157,.00684,.00339,.01362,.00529,.02037,.00441,.01569,.00931,.03125,.01435,.04675,.00437,.01345,.00887,.02685,.01343,.04023,.00667,.01963,.01361,.03963,.0144,.06054,.00036,.00951-.00066,.01907-.00336,.02821H.65731Z"/><path class="cls-1" d="M.61485,.78747c.00009-.00012,.00017-.00023,.00026-.00035,.0001-.00013,.00021-.00026,.00031-.00038,.00065-.00078-.00118,.00154-.00057,.00073Z"/><path class="cls-1" d="M.62527,.76664c-.00009,.00029-.00017,.00058-.00026,.00086,.00005-.00017,.0001-.00035,.00015-.00052,.00004-.00011,.00007-.00023,.0001-.00034Z"/></g><g><path class="cls-1" d="M.60853,.78406c-.00104,.00297-.00239,.00582-.00409,.00847-.00333,.00521-.0078,.00962-.01229,.01382-.00395,.0037-.0081,.00719-.01232,.01059-.00326,.00262-.00661,.00527-.0102,.00744-.00069,.00067-.00148,.00103-.00236,.00108-.00064,.00021-.0007-.00006-.00019-.00081,.00074-.00105,.00157-.00202,.00248-.00291,.00052-.00056,.00105-.00112,.00159-.00166,.00005-.00005,.00009-.00011,.00014-.00016,.00266-.00362,.00463-.0077,.00596-.01199-.00004,.00014-.00008,.00028-.00012,.00041,.00009-.00029,.00017-.00058,.00026-.00086-.00004,.00015-.00009,.00029-.00013,.00044,.00191-.0067,.00223-.01372,.00138-.02062-.00083-.00675-.00273-.01334-.00517-.01967-.00238-.00616-.0053-.0121-.00735-.01839-.00198-.00608-.00301-.01248-.00174-.01882,.00131-.00659,.00441-.01259,.00811-.01813,.00179-.00268,.00437-.00488,.0067-.00708,.00393-.00372,.0081-.0072,.01232-.01059,.00186-.00151,.00376-.00296,.00571-.00435,.00144-.00109,.00293-.00212,.00447-.00307h-.00001c.00008-.00006,.004-.00239,.00259-.00028-.00287,.0043-.00542,.00887-.00697,.01382,.00004-.00015,.00008-.0003,.00013-.00044-.00009,.00029-.00017,.00058-.00026,.00086,.00004-.00014,.00009-.00028,.00013-.00042-.00019,.00067-.00036,.00134-.00051,.00202-.00149,.00683-.00031,.01372,.00191,.02025,.00228,.0067,.00547,.01305,.00788,.0197,.00248,.00684,.00426,.01398,.00471,.02125,.00042,.00686-.00047,.01365-.00274,.02014H.60853Z"/><path class="cls-1" d="M.57739,.80746c-.00009,.00029-.00017,.00058-.00026,.00086,.00004-.00014,.00008-.00027,.00012-.00041h0c.00005-.00016,.00009-.00031,.00013-.00045Z"/><path class="cls-1" d="M.59741,.70027c-.00004,.00015-.00009,.0003-.00013,.00044-.00004,.00014-.00009,.00028-.00013,.00042,.00009-.00029,.00017-.00058,.00026-.00086Z"/></g><g><path class="cls-1" d="M.4838,.72863s.00003-.00002,.00005-.00003c-.00002,.00001-.00004,.00002-.00005,.00003Z"/><path class="cls-1" d="M.50818,.69886c-.00009,.00029-.00017,.00058-.00026,.00087,.00004-.00014,.00008-.00029,.00012-.00043,.00005-.00015,.00009-.00029,.00013-.00044Z"/></g><path class="cls-1" d="M.57907,.62414c-.00041-.00665-.00204-.01318-.00431-.01943-.0022-.00608-.00512-.01188-.0072-.01801-.00203-.00597-.00311-.01226-.00175-.01851,.00013-.0006,.00028-.0012,.00045-.00179,.00142-.00452,.00375-.00868,.00637-.01261,.00142-.00212-.00251,.00022-.00259,.00028-.00154,.00096-.00302,.00198-.00446,.00307-.00195,.00139-.00385,.00284-.00571,.00435-.00422,.00339-.00839,.00687-.01232,.01059-.00103,.00099-.00205,.00198-.00308,.00297-.00134,.00126-.00254,.00263-.00362,.00412-.0034,.00509-.00624,.0106-.00744,.01665-.00115,.00579-.00021,.01165,.00159,.0172,.00187,.00575,.00454,.01118,.00672,.01681,.00224,.00579,.00397,.01181,.00473,.01798,.00078,.00628,.00049,.01268-.00124,.01878h0c-.00121,.0039-.00299,.0076-.00539,.01088,0,0-.00001,.00002-.00002,.00002-.00048,.00048-.00094,.00097-.0014,.00147-.00029,.00028-.00057,.00057-.00084,.00087,.00323-.00686,.00478-.01454,.00447-.02209-.00041-.01005-.00374-.01949-.00764-.02866-.00367-.00862-.0076-.01781-.00587-.02739,.00017-.00094,.00039-.00188,.00065-.0028-.00004,.00011-.00007,.00022-.0001,.00033,.00009-.00029,.00017-.00058,.00026-.00087-.00005,.00018-.0001,.00035-.00015,.00053,.00142-.00451,.00374-.00868,.00636-.0126,.0014-.00209-.0024,.00016-.00258,.00028h0c-.00154,.00096-.00302,.00198-.00446,.00307-.00195,.00139-.00385,.00284-.00571,.00435-.00422,.00339-.00839,.00687-.01232,.01059-.00233,.0022-.00491,.0044-.0067,.00708-.00339,.00507-.00621,.01056-.00743,.01659-.00118,.00583-.00022,.01173,.0016,.01732,.00186,.00568,.00449,.01107,.00665,.01663,.00225,.0058,.004,.01184,.00477,.01803,.0008,.0064,.00045,.01284-.00131,.01905,.00005-.00015,.00009-.00029,.00013-.00044-.00009,.00029-.00017,.00058-.00026,.00087,.00004-.00014,.00008-.00029,.00012-.00043-.00092,.00296-.00212,.00583-.00361,.00854-.00015,.00011-.0003,.00021-.00045,.00032-.00057,.0004-.00114,.00081-.00171,.0012-.00007,.00005-.00014,.0001-.00021,.00015-.00053,.00033-.00107,.00066-.00161,.00097-.00224,.0011-.0046,.00194-.00708,.00228-.00004,.00002-.00009,.00004-.00013,.00006,.00163-.00427,.00278-.00876,.00334-.01329,.00068-.00553,.00047-.01116-.00032-.01667-.00082-.0057-.00228-.0113-.00415-.01674-.0018-.00526-.00405-.01034-.0062-.01547-.00416-.00991-.008-.02051-.00596-.0314,.00022-.00116,.00049-.0023,.00081-.00343-.00005,.00015-.00009,.0003-.00014,.00045l.00026-.00086c-.00004,.00014-.00008,.00027-.00012,.00041,.00179-.00574,.00473-.01102,.00806-.016,.00139-.00209-.0024,.00016-.00258,.00028h0c-.00154,.00096-.00302,.00198-.00447,.00307-.0015,.00107-.00297,.00218-.00442,.00332,0,0-.00002,0-.00003,.00001-.00116,.00054-.00226,.00119-.0033,.00194-.00167,.00107-.00328,.00221-.00484,.00343-.00431,.00327-.00852,.0067-.01257,.0103-.00031,.00028-.00063,.00057-.00094,.00085-.00931,.00693-.01829,.01437-.02672,.02234-.0059,.00557-.01151,.01136-.01649,.01778-.00311,.004-.00587,.0083-.00798,.01291-.00212,.00464-.00364,.00969-.00406,.01479-.00045,.00555,.00053,.01109,.00214,.01639,.00165,.00543,.00394,.01064,.00615,.01586,.00228,.00536,.00441,.01077,.00601,.01638,.00309,.01082,.00435,.02236,.00192,.03345-.00024,.0011-.00052,.00219-.00083,.00327-.00156,.00505-.00387,.00984-.00702,.01408-.00012,.00014-.00024,.00028-.00036,.00042-.00065,.00064-.00128,.0013-.0019,.00197-.00092,.00089-.00174,.00186-.00248,.00291-.00051,.00076-.00045,.00103,.00019,.00081,.00089-.00005,.00167-.0004,.00236-.00107,.00359-.00217,.00694-.00482,.0102-.00744,.00387-.00311,.00769-.00631,.01135-.00968,.00603-.0044,.01181-.00913,.01746-.01404,.00094-.00081,.00187-.00164,.00279-.00247,.00248-.00186,.00493-.00375,.00733-.0057,.00703-.0057,.0139-.01159,.02036-.01794,.00308-.00302,.00592-.00622,.0085-.00968,.00013-.00017,.00026-.00034,.00038-.00052,.00007-.00005,.00015-.0001,.00022-.00015,.00007-.00005,.00014-.00009,.00021-.00014,.00091-.00059,.00182-.00118,.00273-.00177,.00273-.00178,.00546-.00355,.00811-.00544,.00716-.00512,.01399-.01063,.02063-.01641,.00461-.00401,.00923-.0082,.01321-.01284,.00185-.00215,.00359-.00443,.00507-.00684,.00031-.00051,.00062-.00103,.00091-.00156h.00002c.00089-.00005,.00167-.00041,.00236-.00108,.00359-.00217,.00694-.00482,.0102-.00744,.00422-.00339,.00837-.00689,.01232-.01059,.0043-.00403,.00861-.00824,.01181-.01324,.00155-.00242,.00279-.00503,.00374-.00774,.00208-.00596,.00291-.01218,.00253-.01848h0Zm-.11636,.11032c-.00006,.00021-.00013,.00043-.00019,.00064,.00002-.00007,.00004-.00015,.00006-.00022-.00186,.00598-.0047,.01165-.00826,.01679-.00365,.00274-.00723,.00559-.01071,.00856,.00136-.00243,.0025-.005,.00341-.00763,.00261-.00752,.00359-.0154,.00306-.02333-.00057-.00853-.00273-.01689-.00568-.02489-.00286-.00774-.0066-.01514-.00915-.023-.00137-.00423-.00238-.00859-.0026-.01304-.0002-.00404,.00033-.00805,.00142-.01193,.00205-.00658,.00557-.01261,.00974-.01807,.00055-.00068,.00111-.00135,.00167-.00201,.00106-.00078,.00212-.00156,.00316-.00236,.00191-.00147,.0038-.00295,.00568-.00446-.00297,.00505-.00536,.01042-.00655,.01619-.00149,.00723-.0004,.01454,.00181,.0215,.00227,.00711,.00554,.01384,.00827,.02077,.00289,.00732,.00515,.01493,.00619,.02274,.00108,.0081,.00078,.01631-.00148,.02419,.00004-.00014,.00009-.00028,.00013-.00042h0Z"/><path class="cls-1" d="M.46271,.73446c-.00006,.00021-.00013,.00043-.00019,.00064,.00002-.00007,.00004-.00015,.00006-.00022,.00004-.00014,.00009-.00028,.00013-.00042h0Z"/><path class="cls-1" d="M.4838,.72863s.00003-.00002,.00005-.00003c-.00002,.00001-.00004,.00002-.00005,.00003Z"/><g><path class="cls-1" d="M.56175,.81973c-.00104,.00297-.00239,.00582-.00409,.00847-.00333,.00521-.0078,.00962-.01229,.01382-.00395,.0037-.0081,.00719-.01232,.01059-.00326,.00262-.00661,.00527-.0102,.00744-.00069,.00067-.00148,.00103-.00236,.00108-.00064,.00021-.0007-.00006-.00019-.00081,.00074-.00105,.00157-.00202,.00248-.00291,.00052-.00056,.00105-.00112,.00159-.00166,.00005-.00005,.00009-.00011,.00014-.00017,.00265-.00361,.00462-.00768,.00595-.01196,.00192-.00671,.00224-.01375,.00139-.02066-.00083-.00675-.00273-.01334-.00517-.01967-.00238-.00616-.0053-.0121-.00735-.01839-.00198-.00608-.00301-.01248-.00174-.01882,.00131-.00659,.00441-.01259,.00811-.01813,.00179-.00268,.00437-.00488,.0067-.00708,.00393-.00372,.0081-.0072,.01232-.01059,.00186-.00151,.00376-.00296,.00571-.00435,.00144-.00109,.00293-.00211,.00446-.00307,.00008-.00006,.004-.0024,.00259-.00028-.00288,.00431-.00543,.00889-.00698,.01385,.00005-.00016,.00009-.00032,.00014-.00048-.00009,.00029-.00017,.00058-.00026,.00086,.00004-.00013,.00008-.00026,.00012-.00039-.00018,.00066-.00035,.00132-.0005,.00198-.00149,.00683-.00031,.01372,.00191,.02025,.00228,.0067,.00547,.01305,.00788,.0197,.00248,.00684,.00426,.01398,.00471,.02125,.00042,.00685-.00048,.01365-.00274,.02013h0Z"/><path class="cls-1" d="M.55063,.73594c-.00005,.00016-.00009,.00032-.00014,.00048-.00004,.00013-.00008,.00026-.00012,.00039,.00009-.00029,.00017-.00058,.00026-.00086h0Z"/></g><g><path class="cls-1" d="M.51351,.85552c-.00104,.00297-.00239,.00582-.00409,.00847-.00333,.00521-.0078,.00962-.01229,.01382-.00395,.0037-.0081,.00719-.01232,.01059-.00326,.00262-.00661,.00527-.0102,.00744-.00069,.00067-.00148,.00103-.00236,.00108-.00064,.00021-.0007-.00006-.00019-.00081,.00074-.00105,.00157-.00202,.00248-.00291,.00052-.00056,.00105-.00111,.00159-.00166,.00005-.00006,.0001-.00011,.00015-.00017,.00265-.00361,.00462-.00768,.00595-.01196,.00192-.00671,.00224-.01375,.00139-.02066-.00083-.00675-.00273-.01334-.00517-.01967-.00238-.00616-.0053-.0121-.00735-.01839-.00198-.00608-.00301-.01248-.00174-.01882,.00131-.00659,.00441-.01259,.00811-.01813,.00179-.00268,.00437-.00488,.0067-.00708,.00393-.00372,.0081-.0072,.01232-.01059,.00186-.00151,.00376-.00296,.00571-.00435,.00144-.00109,.00293-.00211,.00446-.00307,.00008-.00006,.004-.0024,.00259-.00028-.00288,.00431-.00543,.00889-.00698,.01385,.00005-.00016,.00009-.00032,.00014-.00048-.00009,.00029-.00017,.00058-.00026,.00087,.00004-.00013,.00008-.00026,.00012-.00038-.00018,.00065-.00035,.00131-.0005,.00198-.00149,.00683-.00031,.01372,.00191,.02025,.00228,.0067,.00547,.01305,.00788,.0197,.00248,.00684,.00426,.01398,.00471,.02125,.00042,.00685-.00048,.01365-.00274,.02014H.51351s0,0,0,0Z"/><path class="cls-1" d="M.50239,.77173c-.00005,.00016-.00009,.00032-.00014,.00048-.00004,.00013-.00008,.00026-.00012,.00038,.00009-.00029,.00017-.00058,.00026-.00087Z"/></g><g><path class="cls-1" d="M.59441,.67022c-.00346,.00351-.00726,.00684-.01105,.00998-.01502,.01245-.03046,.02437-.04639,.03563-.02251,.01591-.04598,.03044-.07005,.04388-.00533,.00298-.01072,.00585-.01603,.00884,.00002,.00003-.00177,.00087-.00251,.00214-.00207,.00351-.00369,.00727-.0049,.01117,.00003-.00012,.00007-.00024,.0001-.00037l-.00026,.00086c.00005-.00017,.0001-.00033,.00015-.0005-.00251,.0088-.00287,.01808-.00169,.02713,.00109,.00837,.00346,.01657,.00679,.02432,.0036,.00836,.00863,.01594,.01296,.02392,.00413,.00763,.00754,.01578,.00778,.02456,.00011,.0041-.0005,.00812-.00181,.01201-.00178,.00528-.00539,.00945-.00927,.01334-.00697,.00699-.01474,.01348-.02282,.01915,0,.00001-.005,.00369-.0056,.00297-.00042-.0005,.00162-.00272,.0029-.00402-.00005,.00007-.0001,.00015-.00015,.00022-.0001,.00012-.00021,.00023-.00031,.00035-.00021,.00024-.00011,.00015,.00012-.00008-.00043,.00059-.00003,.00011,.00029-.00031,.00072-.00075,.00182-.00193,.00105-.00116,.00003-.00003-.0004,.00038-.001,.00098,.00042-.00061,.00081-.00123,.00116-.00187,.00084-.0015,.00149-.00309,.00201-.00472-.00004,.00014-.00008,.00028-.00012,.00041l.00026-.00086c-.00005,.00015-.00009,.0003-.00014,.00045,.00054-.00198,.00089-.00401,.00104-.00605,.00075-.00994-.00286-.01928-.00749-.02789-.00488-.00906-.01059-.01761-.01437-.02723-.0069-.01758-.00901-.03793-.00139-.05566,.00212-.00494,.00507-.0093,.00843-.01348,.00211-.00262,.00445-.00507,.00685-.00742,.00498-.0049,.01019-.00957,.01556-.01403,.0081-.00673,.01648-.01312,.02542-.01869,.00414-.00258,.0084-.00494,.01267-.00728,.01949-.01067,.03871-.02179,.05734-.03391,.00054-.00035,.00109-.00071,.00163-.00106h.00001s0,0,0,0c0,0,.00002-.00001,.00004-.00003h0s.00003-.00002,.00005-.00003c.00003-.00002,.00008-.00005,.00013-.00008,0,0-.00001,0-.00002,.00001,.00057-.00038,.00209-.00138,.00267-.00177,.00236-.00157,.0047-.00317,.00704-.00477s.00466-.00323,.00697-.00486c.00119-.00084,.00237-.00168,.00355-.00253,.0004-.00029,.00104-.00075,.00162-.00117-.00024,.00018-.00049,.00036-.00074,.00054,.00076-.00055,.00127-.00093,.00159-.00116-.00019,.00014-.00043,.00031-.00068,.00049,.00347-.00255,.00691-.00514,.01032-.00777-.00013,.0001-.00025,.0002-.00038,.0003-.00034,.00027-.00069,.00054-.00103,.00081-.00015,.00011-.00024,.00019-.0003,.00024,.0004-.00031,.0025-.00194,.00312-.00243-.00006,.00004-.00013,.0001-.00022,.00017-.0004,.00031-.00079,.00061-.00119,.00092,.00033-.00026,.00066-.00052,.00099-.00078,.00108-.00086,.00216-.00171,.00324-.00258,.00076-.00061,.00152-.00122,.00227-.00183-.00045,.00038-.00091,.00075-.00136,.00113-.00016,.00013-.00026,.00021-.00032,.00027,.00041-.00033,.00248-.00203,.00334-.00273l-.00053,.00043c-.00037,.0003-.00074,.0006-.00112,.00091,.00011-.00009,.00021-.00017,.00032-.00026,.00383-.00317,.0077-.00631,.01177-.00916,.00147-.0011,.00304-.00205,.00468-.00285,.0003-.00003,.0006-.00007,.0009-.0001,.0006,.00071-.0039,.00502-.0039,.005h0Z"/><path class="cls-1" d="M.44359,.7815c-.00004,.00012-.00007,.00024-.0001,.00037-.00005,.00017-.0001,.00033-.00015,.0005l.00026-.00086Z"/><path class="cls-1" d="M.5416,.70593h-.00001s0,0,0,0h0Z"/><path class="cls-1" d="M.54164,.7059s-.00003,.00002-.00004,.00003h0s.00001-.00001,.00002-.00002c0,0,0,0,.00002,0Z"/><path class="cls-1" d="M.54182,.70578c-.00005,.00003-.0001,.00006-.00013,.00008-.00002,.00001-.00003,.00002-.00005,.00003h0s0,0,0-.00001c.00002-.00001,.00004-.00003,.00007-.00005l.00005-.00003s.00001,0,.00002-.00001c0,0,.00001,0,.00002-.00001Z"/><path class="cls-1" d="M.54193,.70571c.00021-.00014,.00043-.00028,.00064-.00042-.00028,.00018-.00049,.00032-.00064,.00042Z"/><path class="cls-1" d="M.54266,.70523c.00018-.00012,.00037-.00024,.00055-.00036-.0002,.00013-.00039,.00025-.00055,.00036Z"/><path class="cls-1" d="M.56449,.69007c-.00032,.00023-.00083,.00061-.00159,.00116,.00025-.00018,.00049-.00036,.00074-.00054,.00004-.00003,.00008-.00006,.00011-.00008,.00001,0,.00002-.00002,.00003-.00002,0,0,.00002-.00001,.00003-.00002,.00025-.00018,.00049-.00036,.00068-.00049Z"/><path class="cls-1" d="M.57533,.68187c.00009-.00007,.00016-.00012,.00022-.00017-.00062,.00049-.00272,.00212-.00312,.00243,.00006-.00005,.00015-.00012,.0003-.00024,.00034-.00027,.00069-.00054,.00103-.00081,.00013-.0001,.00025-.0002,.00038-.0003,.0004-.00031,.0008-.00061,.00119-.00092h0Z"/><path class="cls-1" d="M.58229,.67626c-.00086,.0007-.00292,.0024-.00334,.00273,.00006-.00005,.00017-.00014,.00032-.00027,.00046-.00038,.00091-.00075,.00136-.00113,.00037-.0003,.00074-.0006,.00112-.00091l.00053-.00043H.58229Z"/></g></svg>